<mxfile host="app.diagrams.net" modified="2022-01-22T05:25:52.242Z" agent="5.0 (Macintosh; Intel Mac OS X 10_15_7) AppleWebKit/537.36 (KHTML, like Gecko) Chrome/97.0.4692.71 Safari/537.36" etag="emEf3NnfvB854Z01VwSa" version="16.4.5" type="github">
  <diagram id="52yRbrlyDboL1Ueb6UVa" name="Page-1">
    <mxGraphModel dx="1254" dy="1521" grid="0" gridSize="10" guides="1" tooltips="1" connect="1" arrows="1" fold="1" page="0" pageScale="1" pageWidth="827" pageHeight="1169" math="0" shadow="0">
      <root>
        <mxCell id="0" />
        <mxCell id="1" parent="0" />
        <mxCell id="H3JLHAOPogbfjWaKHcvG-3" value="Yes" style="edgeStyle=none;curved=1;rounded=0;orthogonalLoop=1;jettySize=auto;html=1;endArrow=open;startSize=14;endSize=14;sourcePerimeterSpacing=8;targetPerimeterSpacing=8;" edge="1" parent="1" source="H3JLHAOPogbfjWaKHcvG-1" target="H3JLHAOPogbfjWaKHcvG-2">
          <mxGeometry relative="1" as="geometry" />
        </mxCell>
        <mxCell id="H3JLHAOPogbfjWaKHcvG-5" value="No" style="edgeStyle=none;curved=1;rounded=0;orthogonalLoop=1;jettySize=auto;html=1;endArrow=open;startSize=14;endSize=14;sourcePerimeterSpacing=8;targetPerimeterSpacing=8;" edge="1" parent="1" source="H3JLHAOPogbfjWaKHcvG-1" target="H3JLHAOPogbfjWaKHcvG-4">
          <mxGeometry relative="1" as="geometry" />
        </mxCell>
        <mxCell id="H3JLHAOPogbfjWaKHcvG-1" value="Year&amp;nbsp; % 4 = 0?" style="rounded=0;whiteSpace=wrap;html=1;hachureGap=4;" vertex="1" parent="1">
          <mxGeometry x="97" y="-4" width="160" height="80" as="geometry" />
        </mxCell>
        <mxCell id="H3JLHAOPogbfjWaKHcvG-7" style="edgeStyle=none;curved=1;rounded=0;orthogonalLoop=1;jettySize=auto;html=1;endArrow=open;startSize=14;endSize=14;sourcePerimeterSpacing=8;targetPerimeterSpacing=8;" edge="1" parent="1" source="H3JLHAOPogbfjWaKHcvG-2" target="H3JLHAOPogbfjWaKHcvG-6">
          <mxGeometry relative="1" as="geometry" />
        </mxCell>
        <mxCell id="H3JLHAOPogbfjWaKHcvG-11" value="Yes" style="edgeLabel;html=1;align=center;verticalAlign=middle;resizable=0;points=[];" vertex="1" connectable="0" parent="H3JLHAOPogbfjWaKHcvG-7">
          <mxGeometry x="-0.2596" relative="1" as="geometry">
            <mxPoint as="offset" />
          </mxGeometry>
        </mxCell>
        <mxCell id="H3JLHAOPogbfjWaKHcvG-9" style="edgeStyle=none;curved=1;rounded=0;orthogonalLoop=1;jettySize=auto;html=1;endArrow=open;startSize=14;endSize=14;sourcePerimeterSpacing=8;targetPerimeterSpacing=8;" edge="1" parent="1" source="H3JLHAOPogbfjWaKHcvG-2" target="H3JLHAOPogbfjWaKHcvG-8">
          <mxGeometry relative="1" as="geometry" />
        </mxCell>
        <mxCell id="H3JLHAOPogbfjWaKHcvG-10" value="No" style="edgeLabel;html=1;align=center;verticalAlign=middle;resizable=0;points=[];" vertex="1" connectable="0" parent="H3JLHAOPogbfjWaKHcvG-9">
          <mxGeometry x="-0.2648" relative="1" as="geometry">
            <mxPoint as="offset" />
          </mxGeometry>
        </mxCell>
        <mxCell id="H3JLHAOPogbfjWaKHcvG-2" value="Year&amp;nbsp; % 100 = 0?" style="rounded=0;whiteSpace=wrap;html=1;hachureGap=4;" vertex="1" parent="1">
          <mxGeometry x="-51" y="195" width="160" height="80" as="geometry" />
        </mxCell>
        <mxCell id="H3JLHAOPogbfjWaKHcvG-4" value="Not a leap year" style="rounded=0;whiteSpace=wrap;html=1;hachureGap=4;" vertex="1" parent="1">
          <mxGeometry x="245" y="195" width="160" height="80" as="geometry" />
        </mxCell>
        <mxCell id="H3JLHAOPogbfjWaKHcvG-13" value="Yes" style="edgeStyle=none;curved=1;rounded=0;orthogonalLoop=1;jettySize=auto;html=1;endArrow=open;startSize=14;endSize=14;sourcePerimeterSpacing=8;targetPerimeterSpacing=8;" edge="1" parent="1" source="H3JLHAOPogbfjWaKHcvG-6" target="H3JLHAOPogbfjWaKHcvG-12">
          <mxGeometry relative="1" as="geometry" />
        </mxCell>
        <mxCell id="H3JLHAOPogbfjWaKHcvG-15" value="No" style="edgeStyle=none;curved=1;rounded=0;orthogonalLoop=1;jettySize=auto;html=1;endArrow=open;startSize=14;endSize=14;sourcePerimeterSpacing=8;targetPerimeterSpacing=8;" edge="1" parent="1" source="H3JLHAOPogbfjWaKHcvG-6" target="H3JLHAOPogbfjWaKHcvG-14">
          <mxGeometry relative="1" as="geometry" />
        </mxCell>
        <mxCell id="H3JLHAOPogbfjWaKHcvG-6" value="Year % 400 = 0?" style="rounded=0;whiteSpace=wrap;html=1;hachureGap=4;" vertex="1" parent="1">
          <mxGeometry x="-157" y="361" width="160" height="80" as="geometry" />
        </mxCell>
        <mxCell id="H3JLHAOPogbfjWaKHcvG-8" value="Leap year" style="rounded=0;whiteSpace=wrap;html=1;hachureGap=4;" vertex="1" parent="1">
          <mxGeometry x="27" y="361" width="160" height="80" as="geometry" />
        </mxCell>
        <mxCell id="H3JLHAOPogbfjWaKHcvG-12" value="Leap year" style="rounded=0;whiteSpace=wrap;html=1;hachureGap=4;" vertex="1" parent="1">
          <mxGeometry x="-250.5" y="534" width="160" height="80" as="geometry" />
        </mxCell>
        <mxCell id="H3JLHAOPogbfjWaKHcvG-14" value="Not a leap year" style="rounded=0;whiteSpace=wrap;html=1;hachureGap=4;" vertex="1" parent="1">
          <mxGeometry x="-63.5" y="534" width="160" height="80" as="geometry" />
        </mxCell>
      </root>
    </mxGraphModel>
  </diagram>
</mxfile>
